<svg id="Capa_1" enable-background="new 0 0 512 512" height="512" viewBox="0 0 512 512" width="512" xmlns="http://www.w3.org/2000/svg"><g><path d="m83 300h103v92c0 5.514-4.486 10-10 10h-51.266c-4.452-17.233-20.13-30-38.734-30-22.056 0-40 17.944-40 40s17.944 40 40 40c18.604 0 34.282-12.767 38.734-30h51.266c16.542 0 30-13.458 30-30v-92h40v133.266c-17.233 4.452-30 20.13-30 38.734 0 22.056 17.944 40 40 40s40-17.944 40-40c0-18.604-12.767-34.282-30-38.734v-133.266h40v92c0 16.542 13.458 30 30 30h51.266c4.452 17.233 20.13 30 38.734 30 22.056 0 40-17.944 40-40s-17.944-40-40-40c-18.604 0-34.282 12.767-38.734 30h-51.266c-5.514 0-10-4.486-10-10v-92h103c44.99 0 83-36.636 83-80 0-37.439-28.623-69.413-65.043-77.65-8.375-45.525-49.277-80.479-97.085-82.277-21.443-37.214-60.682-60.073-103.872-60.073-43.198 0-82.441 22.865-103.883 60.091-43.271 2.034-79.117 37.799-79.117 79.909 0 .954.028 1.894.078 2.821-36.065 9.057-63.078 41.277-63.078 77.179 0 43.364 38.01 80 83 80zm-7.629-139.184c5.583-.717 9.483-5.905 8.606-11.474-.553-3.517-.977-6.438-.977-9.342 0-32.41 28.648-59.809 62.642-59.999 5.56.815 9.423-1.621 11.276-5.26 17.195-33.765 51.329-54.741 89.082-54.741s71.887 20.976 89.082 54.741c1.881 3.693 5.758 6.077 11.288 5.26 41.797.184 77.675 31.711 81.767 71.927.469 4.615 4.05 8.301 8.649 8.903 30.961 4.056 55.214 30.046 55.214 59.169 0 32.523-28.851 60-63 60h-346c-34.149 0-63-27.477-63-60 0-29.203 24.322-55.2 55.371-59.184z"/></g></svg>